<?xml version="1.0" standalone="no"?><!DOCTYPE svg PUBLIC "-//W3C//DTD SVG 1.1//EN" "http://www.w3.org/Graphics/SVG/1.1/DTD/svg11.dtd"><svg id="export_svg" viewBox="0 0 200 264.06622314453125" class="canvas" version="1.1" xmlns="http://www.w3.org/2000/svg" xmlns:xlink="http://www.w3.org/1999/xlink">
                            <defs>
                                <style type="text/css">
                                                                                @font-face {
                                              font-family: Calling Heart;
                                              src: url('http://localhost/logomaker/assets/fonts/1539424302_Calling_Heart.ttf') format('truetype');
                                          }

                                                                                @font-face {
                                              font-family: Mentega;
                                              src: url('http://localhost/logomaker/assets/fonts/1539424362_Mentega.ttf') format('truetype');
                                          }

                                                                                @font-face {
                                              font-family: nalicha;
                                              src: url('http://localhost/logomaker/assets/fonts/1539424856_nalicha.otf') format('opentype');
                                          }

                                                                                @font-face {
                                              font-family: Ariandi;
                                              src: url('http://localhost/logomaker/assets/fonts/1539424921_Ariandi.ttf') format('truetype');
                                          }

                                                                                @font-face {
                                              font-family: Belinda Script;
                                              src: url('http://localhost/logomaker/assets/fonts/1539425168_Belinda_Script.ttf') format('truetype');
                                          }

                                                                      </style>      
                            </defs>
                            <g data-rotate_x="243.7" data-xx="0" data-scale="0.41034058268362744" data-yy="11.97796630859375" transform="translate(0, -11.97784423828125) scale(0.41034058268362744,0.41034058268362744) rotate(0,243.7,243.7)">
<g style="transform: translate(0px, 0px) scale(1);">
    <linearGradient id="symbol_0" gradientUnits="objectBoundingBox" x1="0.5" y1="0" x2="0.5" y2="1"><stop class="first_value" offset="0" style="stop-color:#a12525"/><stop class="last_value" offset="1" style="stop-color:#8542c2"/></linearGradient><path d="M378.6,107.39c9.9,0,19.6-2.6,28.1-7.7l80.7-47.7v-22.3l-90.8,52.9c-6.9,4-14.7,6.1-22.6,6l-120.2-1.4&#10;        c-6-2.2-10.8-3.6-12.6-4.3c-37.6-8.4-67-5.1-87,0.3c-15,4-31,2.5-45.2-4l-109-50v199.8l11.3,6.2c16.7,9.1,30,23.2,38.3,40.3&#10;        l-6.4,5.2c-17.2,12.5-20.9,36.7-9.6,53.8c6.3,8.3,15.2,13.6,25.4,15.4c1.2,0.1,3,0.2,4.3,0.2c3.7,0.2,7.3-0.2,10.4-0.7&#10;        c0.2,8.6,2.2,16,7.3,23c6.8,9.5,17.6,13.8,29.2,14.4c3,0.2,6.1,0.3,8.5,0.5c-1.1,9.1,1.5,18.4,7.2,26c6.3,8.3,15.2,13.6,25.4,15.4&#10;        c1.2,0.1,3,0.2,4.3,0.2c9.1,0.5,17.8-2.1,24.8-7.2l3.8-2.9c0.9,5.5,2.5,10.5,5.9,15c5.1,7,12.8,11.7,21.9,13.4&#10;        c1.2,0.1,2.4,0.1,3.7,0.2c7.3,0.4,14.7-1.7,21.1-6.2h0.6l4.5,6.3c7.9,11.4,24.3,14.1,35.7,6.2c9.5-6.8,13.3-20.1,9-30.7l0.8,1.2&#10;        c7.5,11.1,21.7,15.9,34.1,10.8c13.7-5.6,19.2-20.4,15.6-33.1c9.2,10.3,25,12.3,36.4,4.4l0.6-0.6c11.4-7.9,14.7-23,8.6-35&#10;        c9.9,9.1,25.7,10.5,37.1,2.6c13.3-9.7,16.8-28.4,7.1-41.8l-14.2-20.3l30.9-36c8.1-9.5,17.8-17.5,28.6-23.8l15.2-8.8v-23.8l-21,11.9&#10;        c-12,6.8-22.8,15.6-31.8,26.1l-33.2,38.5c-9.9-9.1-25.7-10.5-37.1-2.6c-13.3,9.7-16.8,28.4-7.1,41.8l0.5,1.3h-0.6&#10;        c-9.4-6.6-22.2-7.3-32.3-0.5l-0.6,0.6c-8.9,6.2-13.1,17-11.2,27.5l-3.2,2.3c-8.9-4.7-19.9-4.7-28.8,1.5c-8.2,5.7-12.4,15.8-11.7,25&#10;        l-8.8,5.6c-6.6-1.6-14-0.1-19.7,3.8c-7,5.1-11.1,13.5-10.9,21.4l-4.4,2.8c-2.6,2.3-6.9,3.3-10.5,2.5s-7.2-2.8-9.5-6&#10;        c-2.3-2.6-3.3-6.9-2.5-10.5s2.8-7.2,6-9.5l47.7-35.9c2.5-1.7,3.9-4.1,4-7.1c0.3-5.5-4.4-10.2-9.8-10.2c-2.1,0-3.8,0.5-5.6,1.5&#10;        l-76.2,55.2c-4.4,2.8-9.4,4.4-14.8,3.5c-5.4-0.9-10.2-3.6-13-8c-6.3-8.3-4.4-21,4.5-27.2l90.8-64.8c2-1.8,3.4-4.3,3.4-7.6&#10;        c0.1-5.2-4.2-9.6-9.4-9.8c-3-0.1-5.4,1-7.4,3.3l-88.9,64.3c-2.5,1.1-3.8,2.9-5.7,4.6c-10.7,6.8-26.5,5.3-32.2-2.3&#10;        c-5.7-8.2-4.5-19.2,2.6-26.1l8.9-6.2l98.8-67.4c2.5-1.7,3.9-4.1,4-7.1c0.2-3.3-1.4-6.4-4.1-8.3c-3.5-2.5-7-2.6-10.7-0.4&#10;        l-105.8,71.9c-0.7,1.2-1.9,1.7-2.6,2.3l-10.2,7.4c-8.3,6.3-21,4.4-27.2-4.5c-6.3-8.3-4.4-21,4.5-27.2l199.5-146.9&#10;        c16,9.4,27.8,28.3,27.8,28.3c19.6,61.4,44,61.9,58.8,54.5c7.7-3.8,11.2-12.9,8.5-21.1c-7.8-23.7-12.3-69.6-12.3-69.6&#10;        c-5.5-11.9-23.1-24.4-42.7-34.6l64.1,1L378.6,107.39z" fill="url(#symbol_0)" data-gradient_id="symbol_0"/>
</g>
<g style="transform: translate(0px, 0px) scale(1);">
</g>
<g style="transform: translate(0px, 0px) scale(1);">
</g>
<g style="transform: translate(0px, 0px) scale(1);">
</g>
<g style="transform: translate(0px, 0px) scale(1);">
</g>
<g style="transform: translate(0px, 0px) scale(1);">
</g>
<g style="transform: translate(0px, 0px) scale(1);">
</g>
<g style="transform: translate(0px, 0px) scale(1);">
</g>
<g style="transform: translate(0px, 0px) scale(1);">
</g>
<g style="transform: translate(0px, 0px) scale(1);">
</g>
<g style="transform: translate(0px, 0px) scale(1);">
</g>
<g style="transform: translate(0px, 0px) scale(1);">
</g>
<g style="transform: translate(0px, 0px) scale(1);">
</g>
<g style="transform: translate(0px, 0px) scale(1);">
</g>
<g style="transform: translate(0px, 0px) scale(1);">
</g>
<g style="transform: translate(0px, 0px) scale(1);">
</g>
</g>
                            
                            <g data-rotate_x="57.265625" data-rotate_y="40" data-xx="0" data-yy="0" data-scale="1" transform="translate(42.734375, 184.0662078857422) scale(1,1) rotate(0,57.265625,40)">
                                <g class="logo-entity-inner">
                                    <linearGradient id="title_0" gradientUnits="objectBoundingBox" x1="0.5" y1="0" x2="0.5" y2="1"><stop class="first_value" offset="0" style="stop-color:#a12525"/><stop class="last_value" offset="1" style="stop-color:#8542c2"/></linearGradient><text letter-spacing="0" class="[object Object]" font-size="80px" dominant-baseline="text-before-edge" alignment-baseline="text-before-edge" fill="url(#title_0)" font-family="Mentega" data-gradient_id="title_0">com</text>
                                </g>
                            </g>
                            <g data-rotate_x="0" data-rotate_y="0" data-xx="0" data-yy="0" data-scale="1" transform="translate(100, 264.0662078857422) scale(1,1) rotate(0,0,0)"><g class="logo-entity-inner"><text letter-spacing="0" class="[object Object]" font-size="30px" dominant-baseline="text-before-edge" alignment-baseline="text-before-edge" fill="#000000" font-family="Mentega"/></g></g>

                            <g/>
                        </svg>