<svg xmlns="http://www.w3.org/2000/svg" width="32" height="32" viewBox="0 0 32 32"><path fill="none" stroke="#fff" stroke-width="1.584" stroke-miterlimit="10" d="M27.556 6.443c-.984 1.45-3.047 2.038-3.047 2.038l-.214-.542c-.873-2.503-4.108-2.988-6.213-1.53-2.445 1.696-1.49 4.88-1.49 4.88-4.93 1.728-11.064-3.312-11.064-3.312s-.097 4.56 4.912 7.88c0 0-1.287.248-3.866-.04 0 0 2.174 3.674 5.28 4.502 0 0-1.052 3.485-7.487 3.133a13.713 13.713 0 0 0 7.137 1.99c7.608 0 13.777-6.168 13.777-13.777v-1.268s1.462-.017 2.503-.61"/></svg>