<svg width="16" height="16" viewBox="0 0 16 16" xmlns="http://www.w3.org/2000/svg"><title>Gear</title><g fill="none" fill-rule="evenodd"><path d="M11.477 12.89A5.968 5.968 0 0 1 9 13.918V16H7v-2.083a5.968 5.968 0 0 1-2.477-1.026L3.05 14.365 1.636 12.95l1.473-1.473A5.968 5.968 0 0 1 2.082 9H0V7h2.083A5.968 5.968 0 0 1 3.11 4.523L1.635 3.05 3.05 1.636 4.523 3.11A5.968 5.968 0 0 1 7 2.082V0h2v2.083c.912.153 1.754.51 2.477 1.026l1.473-1.474 1.414 1.414-1.414 1.414c.456.782.814 1.624.967 2.536H16v2h-2.083a5.968 5.968 0 0 1-1.026 2.477l1.474 1.473-1.414 1.414-1.354-1.354zM8 12a4 4 0 1 0 0-8 4 4 0 0 0 0 8zm0 0" fill="#3E3E3E"/></g></svg>