<svg width="32" height="32" viewBox="0 0 32 32" xmlns="http://www.w3.org/2000/svg"><title>Help</title><g fill="none" fill-rule="evenodd"><path d="M0 16C0 7.163 7.163 0 16 0s16 7.163 16 16-7.163 16-16 16S0 24.837 0 16zm30 0c0-7.732-6.268-14-14-14S2 8.268 2 16s6.268 14 14 14 14-6.268 14-14zm0 0" fill="#3E3E3E"/><path d="M14.882 19.548h1.79v-2.44c2.577-.362 4.7-1.763 4.7-4.588v-.045c0-2.577-2.01-4.475-5.06-4.475-2.42 0-4.024 1.062-5.312 2.622l1.153 1.107c1.152-1.334 2.44-2.125 4.113-2.125 2.034 0 3.3 1.31 3.3 2.937v.046c0 1.898-1.56 3.118-4.498 3.186l-.113.113v3.66h-.073zm-.063 4.475h2.078V21.65h-2.08v2.373zm0 0" fill="#3E3E3E"/></g></svg>